<svg width="12" height="12" viewBox="0 0 12 12" fill="none" xmlns="http://www.w3.org/2000/svg">
<g id="icon/expand_more">
<path id="Vector" d="M6.00105 7.47488C5.93439 7.47488 5.87189 7.46446 5.81355 7.44363C5.75522 7.4228 5.70105 7.38738 5.65105 7.33738L3.33855 5.02488C3.24689 4.93321 3.20314 4.81863 3.2073 4.68113C3.21147 4.54363 3.25939 4.42905 3.35105 4.33738C3.44272 4.24571 3.55939 4.19988 3.70105 4.19988C3.84272 4.19988 3.95939 4.24571 4.05105 4.33738L6.00105 6.28738L7.96355 4.32488C8.05522 4.23321 8.1698 4.18946 8.3073 4.19363C8.4448 4.1978 8.55939 4.24571 8.65105 4.33738C8.74272 4.42905 8.78855 4.54571 8.78855 4.68738C8.78855 4.82905 8.74272 4.94571 8.65105 5.03738L6.35105 7.33738C6.30105 7.38738 6.24689 7.4228 6.18855 7.44363C6.13022 7.46446 6.06772 7.47488 6.00105 7.47488Z" fill="#1F4068"/>
</g>
</svg>
