<svg width="24" height="24" viewBox="0 0 24 24" fill="none" xmlns="http://www.w3.org/2000/svg">
<g id="icon/more_vert_FILL">
<rect width="24" height="24" rx="4" fill="white" fill-opacity="0.8"/>
<path id="Vector" d="M12 18C11.5875 18 11.2344 17.8531 10.9406 17.5594C10.6469 17.2656 10.5 16.9125 10.5 16.5C10.5 16.0875 10.6469 15.7344 10.9406 15.4406C11.2344 15.1469 11.5875 15 12 15C12.4125 15 12.7656 15.1469 13.0594 15.4406C13.3531 15.7344 13.5 16.0875 13.5 16.5C13.5 16.9125 13.3531 17.2656 13.0594 17.5594C12.7656 17.8531 12.4125 18 12 18ZM12 13.5C11.5875 13.5 11.2344 13.3531 10.9406 13.0594C10.6469 12.7656 10.5 12.4125 10.5 12C10.5 11.5875 10.6469 11.2344 10.9406 10.9406C11.2344 10.6469 11.5875 10.5 12 10.5C12.4125 10.5 12.7656 10.6469 13.0594 10.9406C13.3531 11.2344 13.5 11.5875 13.5 12C13.5 12.4125 13.3531 12.7656 13.0594 13.0594C12.7656 13.3531 12.4125 13.5 12 13.5ZM12 9C11.5875 9 11.2344 8.85313 10.9406 8.55938C10.6469 8.26562 10.5 7.9125 10.5 7.5C10.5 7.0875 10.6469 6.73438 10.9406 6.44063C11.2344 6.14687 11.5875 6 12 6C12.4125 6 12.7656 6.14687 13.0594 6.44063C13.3531 6.73438 13.5 7.0875 13.5 7.5C13.5 7.9125 13.3531 8.26562 13.0594 8.55938C12.7656 8.85313 12.4125 9 12 9Z" fill="#1C1B1F"/>
</g>
</svg>
